<svg width="128" height="128" viewBox="0 0 128 128" xmlns="http://www.w3.org/2000/svg">
  <defs>
    <linearGradient id="gradient" x1="0%" y1="0%" x2="100%" y2="100%">
      <stop offset="0%" style="stop-color:#3b82f6;stop-opacity:1" />
      <stop offset="100%" style="stop-color:#1d4ed8;stop-opacity:1" />
    </linearGradient>
    <filter id="shadow" x="-50%" y="-50%" width="200%" height="200%">
      <feDropShadow dx="2" dy="2" stdDeviation="3" flood-color="#000" flood-opacity="0.3"/>
    </filter>
  </defs>
  
  <!-- Background circle -->
  <circle cx="64" cy="64" r="58" fill="url(#gradient)" filter="url(#shadow)"/>
  
  <!-- Main copy icon (back document) -->
  <rect x="28" y="18" width="54" height="70" rx="6" ry="6" fill="#ffffff" stroke="none" opacity="0.9"/>
  <rect x="30" y="20" width="50" height="66" rx="4" ry="4" fill="none" stroke="#3b82f6" stroke-width="1.5"/>
  
  <!-- Front document (slightly offset) -->
  <rect x="38" y="28" width="54" height="70" rx="6" ry="6" fill="#ffffff" stroke="none"/>
  <rect x="40" y="30" width="50" height="66" rx="4" ry="4" fill="none" stroke="#1d4ed8" stroke-width="2"/>
  
  <!-- Content lines in front document -->
  <line x1="46" y1="42" x2="78" y2="42" stroke="#64748b" stroke-width="2" stroke-linecap="round"/>
  <line x1="46" y1="50" x2="84" y2="50" stroke="#64748b" stroke-width="2" stroke-linecap="round"/>
  <line x1="46" y1="58" x2="74" y2="58" stroke="#64748b" stroke-width="2" stroke-linecap="round"/>
  <line x1="46" y1="66" x2="82" y2="66" stroke="#64748b" stroke-width="2" stroke-linecap="round"/>
  
  <!-- Twitter bird silhouette -->
  <g transform="translate(48, 74) scale(0.8)">
    <path d="M24 4.56c-1.18.52-2.46.87-3.8 1.04 1.37-.82 2.42-2.12 2.91-3.67-1.28.76-2.7 1.31-4.21 1.61C17.68 2.26 16.12 1.5 14.38 1.5c-3.67 0-6.64 2.98-6.64 6.64 0 .52.06 1.02.17 1.51C5.21 9.34 2.76 7.93 1.13 5.74c-.57.98-.9 2.12-.9 3.33 0 2.3 1.17 4.33 2.95 5.52-1.09-.03-2.11-.33-3-.83v.08c0 3.22 2.29 5.91 5.33 6.52-.56.15-1.15.23-1.76.23-.43 0-.85-.04-1.26-.12.85 2.66 3.32 4.6 6.25 4.65-2.28 1.79-5.15 2.85-8.27 2.85-.54 0-1.07-.03-1.59-.09 2.95 1.89 6.45 2.99 10.21 2.99 12.25 0 18.94-10.15 18.94-18.94 0-.29-.01-.57-.02-.86 1.3-.94 2.43-2.11 3.32-3.44z" fill="#1DA1F2" opacity="0.6"/>
  </g>
  
  <!-- Small copy indicator -->
  <circle cx="88" cy="88" r="8" fill="#10b981"/>
  <path d="M84 88l2 2 4-4" stroke="#ffffff" stroke-width="2" fill="none" stroke-linecap="round" stroke-linejoin="round"/>
</svg> 